<mxfile host="app.diagrams.net" modified="2021-10-09T10:05:00.371Z" agent="5.0 (Windows NT 10.0; Win64; x64) AppleWebKit/537.36 (KHTML, like Gecko) Chrome/94.0.4606.54 Safari/537.36" etag="WdBByf7SfL8gy9yz6Huq" version="15.3.7" type="github">
  <diagram id="c3Hf2OhZGOKBrujlgrCu" name="第 1 页">
    <mxGraphModel dx="1422" dy="772" grid="0" gridSize="10" guides="1" tooltips="1" connect="1" arrows="1" fold="1" page="0" pageScale="1" pageWidth="827" pageHeight="1169" math="0" shadow="0">
      <root>
        <mxCell id="0" />
        <mxCell id="1" parent="0" />
        <mxCell id="lbHuUlWuEfRAbkdGrFAQ-1" value="clean生命周期" style="rounded=0;whiteSpace=wrap;html=1;" vertex="1" parent="1">
          <mxGeometry x="150" y="150" width="120" height="60" as="geometry" />
        </mxCell>
        <mxCell id="lbHuUlWuEfRAbkdGrFAQ-2" value="clean生命周期" style="rounded=0;whiteSpace=wrap;html=1;" vertex="1" parent="1">
          <mxGeometry x="150" y="490" width="120" height="60" as="geometry" />
        </mxCell>
        <mxCell id="lbHuUlWuEfRAbkdGrFAQ-14" style="edgeStyle=orthogonalEdgeStyle;rounded=0;orthogonalLoop=1;jettySize=auto;html=1;exitX=1;exitY=0.5;exitDx=0;exitDy=0;entryX=0;entryY=0.5;entryDx=0;entryDy=0;" edge="1" parent="1" source="lbHuUlWuEfRAbkdGrFAQ-3" target="lbHuUlWuEfRAbkdGrFAQ-6">
          <mxGeometry relative="1" as="geometry" />
        </mxCell>
        <mxCell id="lbHuUlWuEfRAbkdGrFAQ-3" value="clean生命周期" style="rounded=0;whiteSpace=wrap;html=1;" vertex="1" parent="1">
          <mxGeometry x="150" y="320" width="120" height="60" as="geometry" />
        </mxCell>
        <mxCell id="lbHuUlWuEfRAbkdGrFAQ-11" style="edgeStyle=orthogonalEdgeStyle;rounded=0;orthogonalLoop=1;jettySize=auto;html=1;exitX=0.5;exitY=1;exitDx=0;exitDy=0;entryX=0.5;entryY=0;entryDx=0;entryDy=0;" edge="1" parent="1" source="lbHuUlWuEfRAbkdGrFAQ-4" target="lbHuUlWuEfRAbkdGrFAQ-9">
          <mxGeometry relative="1" as="geometry" />
        </mxCell>
        <mxCell id="lbHuUlWuEfRAbkdGrFAQ-4" value="单元测试&lt;br&gt;phase" style="rounded=0;whiteSpace=wrap;html=1;" vertex="1" parent="1">
          <mxGeometry x="370" y="250" width="100" height="50" as="geometry" />
        </mxCell>
        <mxCell id="lbHuUlWuEfRAbkdGrFAQ-10" style="edgeStyle=orthogonalEdgeStyle;rounded=0;orthogonalLoop=1;jettySize=auto;html=1;exitX=0.5;exitY=1;exitDx=0;exitDy=0;entryX=0.5;entryY=0;entryDx=0;entryDy=0;" edge="1" parent="1" source="lbHuUlWuEfRAbkdGrFAQ-6" target="lbHuUlWuEfRAbkdGrFAQ-4">
          <mxGeometry relative="1" as="geometry" />
        </mxCell>
        <mxCell id="lbHuUlWuEfRAbkdGrFAQ-16" value="" style="edgeStyle=orthogonalEdgeStyle;rounded=0;orthogonalLoop=1;jettySize=auto;html=1;" edge="1" parent="1" source="lbHuUlWuEfRAbkdGrFAQ-6" target="lbHuUlWuEfRAbkdGrFAQ-15">
          <mxGeometry relative="1" as="geometry" />
        </mxCell>
        <mxCell id="lbHuUlWuEfRAbkdGrFAQ-6" value="源码编译&lt;br&gt;phase" style="rounded=0;whiteSpace=wrap;html=1;" vertex="1" parent="1">
          <mxGeometry x="370" y="170" width="100" height="50" as="geometry" />
        </mxCell>
        <mxCell id="lbHuUlWuEfRAbkdGrFAQ-7" value="部署远程私服&lt;br&gt;phase" style="rounded=0;whiteSpace=wrap;html=1;" vertex="1" parent="1">
          <mxGeometry x="370" y="490" width="100" height="50" as="geometry" />
        </mxCell>
        <mxCell id="lbHuUlWuEfRAbkdGrFAQ-13" style="edgeStyle=orthogonalEdgeStyle;rounded=0;orthogonalLoop=1;jettySize=auto;html=1;exitX=0.5;exitY=1;exitDx=0;exitDy=0;" edge="1" parent="1" source="lbHuUlWuEfRAbkdGrFAQ-8" target="lbHuUlWuEfRAbkdGrFAQ-7">
          <mxGeometry relative="1" as="geometry" />
        </mxCell>
        <mxCell id="lbHuUlWuEfRAbkdGrFAQ-8" value="安装本地仓库&lt;br&gt;phase" style="rounded=0;whiteSpace=wrap;html=1;" vertex="1" parent="1">
          <mxGeometry x="370" y="410" width="100" height="50" as="geometry" />
        </mxCell>
        <mxCell id="lbHuUlWuEfRAbkdGrFAQ-12" style="edgeStyle=orthogonalEdgeStyle;rounded=0;orthogonalLoop=1;jettySize=auto;html=1;exitX=0.5;exitY=1;exitDx=0;exitDy=0;entryX=0.5;entryY=0;entryDx=0;entryDy=0;" edge="1" parent="1" source="lbHuUlWuEfRAbkdGrFAQ-9" target="lbHuUlWuEfRAbkdGrFAQ-8">
          <mxGeometry relative="1" as="geometry" />
        </mxCell>
        <mxCell id="lbHuUlWuEfRAbkdGrFAQ-9" value="打包phase" style="rounded=0;whiteSpace=wrap;html=1;" vertex="1" parent="1">
          <mxGeometry x="370" y="330" width="100" height="50" as="geometry" />
        </mxCell>
        <mxCell id="lbHuUlWuEfRAbkdGrFAQ-21" style="edgeStyle=orthogonalEdgeStyle;rounded=0;orthogonalLoop=1;jettySize=auto;html=1;exitX=0.5;exitY=1;exitDx=0;exitDy=0;entryX=0.5;entryY=0;entryDx=0;entryDy=0;" edge="1" parent="1" source="lbHuUlWuEfRAbkdGrFAQ-15" target="lbHuUlWuEfRAbkdGrFAQ-17">
          <mxGeometry relative="1" as="geometry" />
        </mxCell>
        <mxCell id="lbHuUlWuEfRAbkdGrFAQ-24" value="" style="edgeStyle=orthogonalEdgeStyle;rounded=0;orthogonalLoop=1;jettySize=auto;html=1;" edge="1" parent="1" source="lbHuUlWuEfRAbkdGrFAQ-15" target="lbHuUlWuEfRAbkdGrFAQ-23">
          <mxGeometry relative="1" as="geometry" />
        </mxCell>
        <mxCell id="lbHuUlWuEfRAbkdGrFAQ-15" value="test plugin的功能1" style="whiteSpace=wrap;html=1;rounded=0;" vertex="1" parent="1">
          <mxGeometry x="540" y="165" width="120" height="60" as="geometry" />
        </mxCell>
        <mxCell id="lbHuUlWuEfRAbkdGrFAQ-22" style="edgeStyle=orthogonalEdgeStyle;rounded=0;orthogonalLoop=1;jettySize=auto;html=1;exitX=0.5;exitY=1;exitDx=0;exitDy=0;entryX=0.5;entryY=0;entryDx=0;entryDy=0;" edge="1" parent="1" source="lbHuUlWuEfRAbkdGrFAQ-17" target="lbHuUlWuEfRAbkdGrFAQ-18">
          <mxGeometry relative="1" as="geometry" />
        </mxCell>
        <mxCell id="lbHuUlWuEfRAbkdGrFAQ-26" value="" style="edgeStyle=orthogonalEdgeStyle;rounded=0;orthogonalLoop=1;jettySize=auto;html=1;" edge="1" parent="1" source="lbHuUlWuEfRAbkdGrFAQ-17" target="lbHuUlWuEfRAbkdGrFAQ-25">
          <mxGeometry relative="1" as="geometry" />
        </mxCell>
        <mxCell id="lbHuUlWuEfRAbkdGrFAQ-17" value="test plugin的功能2" style="whiteSpace=wrap;html=1;rounded=0;" vertex="1" parent="1">
          <mxGeometry x="540" y="260" width="120" height="60" as="geometry" />
        </mxCell>
        <mxCell id="lbHuUlWuEfRAbkdGrFAQ-28" value="" style="edgeStyle=orthogonalEdgeStyle;rounded=0;orthogonalLoop=1;jettySize=auto;html=1;" edge="1" parent="1" source="lbHuUlWuEfRAbkdGrFAQ-18" target="lbHuUlWuEfRAbkdGrFAQ-27">
          <mxGeometry relative="1" as="geometry" />
        </mxCell>
        <mxCell id="lbHuUlWuEfRAbkdGrFAQ-18" value="jacoco plugin的功能1" style="whiteSpace=wrap;html=1;rounded=0;" vertex="1" parent="1">
          <mxGeometry x="540" y="350" width="120" height="60" as="geometry" />
        </mxCell>
        <mxCell id="lbHuUlWuEfRAbkdGrFAQ-23" value="编译单元测试代码" style="whiteSpace=wrap;html=1;rounded=0;" vertex="1" parent="1">
          <mxGeometry x="740" y="165" width="120" height="60" as="geometry" />
        </mxCell>
        <mxCell id="lbHuUlWuEfRAbkdGrFAQ-25" value="执行单元测试代码" style="whiteSpace=wrap;html=1;rounded=0;" vertex="1" parent="1">
          <mxGeometry x="740" y="260" width="120" height="60" as="geometry" />
        </mxCell>
        <mxCell id="lbHuUlWuEfRAbkdGrFAQ-27" value="计算单元测试覆盖率" style="whiteSpace=wrap;html=1;rounded=0;" vertex="1" parent="1">
          <mxGeometry x="740" y="350" width="120" height="60" as="geometry" />
        </mxCell>
        <mxCell id="lbHuUlWuEfRAbkdGrFAQ-29" value="" style="shape=flexArrow;endArrow=classic;html=1;" edge="1" parent="1">
          <mxGeometry width="50" height="50" relative="1" as="geometry">
            <mxPoint x="40" y="179.5" as="sourcePoint" />
            <mxPoint x="110" y="179.5" as="targetPoint" />
            <Array as="points">
              <mxPoint x="90" y="179.5" />
            </Array>
          </mxGeometry>
        </mxCell>
        <mxCell id="lbHuUlWuEfRAbkdGrFAQ-30" value="" style="shape=flexArrow;endArrow=classic;html=1;" edge="1" parent="1">
          <mxGeometry width="50" height="50" relative="1" as="geometry">
            <mxPoint x="40" y="519.5" as="sourcePoint" />
            <mxPoint x="110" y="519.5" as="targetPoint" />
            <Array as="points">
              <mxPoint x="90" y="519.5" />
            </Array>
          </mxGeometry>
        </mxCell>
        <mxCell id="lbHuUlWuEfRAbkdGrFAQ-31" value="" style="shape=flexArrow;endArrow=classic;html=1;" edge="1" parent="1">
          <mxGeometry width="50" height="50" relative="1" as="geometry">
            <mxPoint x="40" y="349" as="sourcePoint" />
            <mxPoint x="110" y="349" as="targetPoint" />
            <Array as="points">
              <mxPoint x="90" y="349" />
            </Array>
          </mxGeometry>
        </mxCell>
        <mxCell id="lbHuUlWuEfRAbkdGrFAQ-32" value="独立执行" style="text;html=1;strokeColor=none;fillColor=none;align=center;verticalAlign=middle;whiteSpace=wrap;rounded=0;" vertex="1" parent="1">
          <mxGeometry x="30" y="150" width="60" height="20" as="geometry" />
        </mxCell>
        <mxCell id="lbHuUlWuEfRAbkdGrFAQ-33" value="独立执行" style="text;html=1;strokeColor=none;fillColor=none;align=center;verticalAlign=middle;whiteSpace=wrap;rounded=0;" vertex="1" parent="1">
          <mxGeometry x="30" y="320" width="60" height="20" as="geometry" />
        </mxCell>
        <mxCell id="lbHuUlWuEfRAbkdGrFAQ-34" value="独立执行" style="text;html=1;strokeColor=none;fillColor=none;align=center;verticalAlign=middle;whiteSpace=wrap;rounded=0;" vertex="1" parent="1">
          <mxGeometry x="30" y="490" width="60" height="20" as="geometry" />
        </mxCell>
      </root>
    </mxGraphModel>
  </diagram>
</mxfile>
